#!OML:ASF H:\GeneralSubjects\Female5\Project 1\Capture day 1\Session 1\Female5.ASF
:FULLY-SPECIFIED
:DEGREES
399
root -14.9271 15.8273 3.78658 188.733 -8.98365 -177.494
lowerback 7.73163 0.611363 -0.560689
upperback -8.70435 0.487584 2.07329
thorax -13.9373 0.213351 2.56477
lowerneck -14.4303 -0.899911 -5.26905
upperneck 44.4009 -12.2313 8.69836
head 21.4332 -6.92129 1.89477
rclavicle -1.60767e-014 5.1684e-015
rhumerus -47.3003 10.6985 -74.3721
rradius 21.4133
rwrist -8.97775
rhand -18.7943 -28.5644
rfingers 7.12502
rthumb 7.50369 -58.4113
lclavicle -1.60767e-014 5.1684e-015
lhumerus -36.4144 -3.70846 83.8799
lradius 30.128
lwrist -6.21518
lhand -27.097 36.0723
lfingers 7.12502
lthumb -0.513756 66.0514
rfemur -25.6334 26.0287 13.3709
rtibia 9.90982
rfoot -1.78574 0.896235
rtoes -24.731
lfemur 18.1068 -46.6373 -39.295
ltibia -6.45879
lfoot -45.7264 33.2862
ltoes -52.3252
400
root -15.0171 15.8113 3.9267 189.124 -8.12318 -178.088
lowerback 8.08872 0.604868 -1.03703
upperback -8.63154 0.408014 1.85671
thorax -14.0769 0.221179 2.60806
lowerneck -15.1783 -0.797792 -4.74117
upperneck 44.9151 -11.8741 7.54189
head 22.0787 -6.81946 1.25487
rclavicle 4.77083e-015 1.53064e-014
rhumerus -47.8364 12.3863 -76.3946
rradius 22.0377
rwrist -9.62735
rhand -17.1676 -28.0204
rfingers 7.12502
rthumb 9.07363 -57.8052
lclavicle 4.77083e-015 1.53064e-014
lhumerus -35.8067 -4.17887 83.9742
lradius 31.0142
lwrist -5.39701
lhand -28.6601 36.1146
lfingers 7.12502
lthumb -2.02347 66.0847
rfemur -27.178 25.9127 11.918
rtibia 10.5105
rfoot -1.55884 0.673845
rtoes -26.3843
lfemur 18.0963 -48.089 -40.7037
ltibia -6.58999
lfoot -47.3778 34.4417
ltoes -51.6993
401
root -15.0968 15.7971 4.06432 189.521 -7.30975 -178.525
lowerback 8.30446 0.575815 -1.58008
upperback -8.49858 0.30151 1.78579
thorax -14.0569 0.230178 2.85396
lowerneck -15.0101 -0.481508 -5.05349
upperneck 44.9964 -11.4176 7.69473
head 22.0678 -6.72006 1.50582
rclavicle -2.60905e-015 -5.96354e-015
rhumerus -48.1335 14.0812 -78.2216
rradius 22.7327
rwrist -10.3154
rhand -15.8153 -27.293
rfingers 7.12502
rthumb 10.3783 -57.0169
lclavicle -2.60905e-015 -5.96354e-015
lhumerus -35.173 -4.54676 84.1895
lradius 31.8294
lwrist -4.77642
lhand -28.8066 36.2424
lfingers 7.12502
lthumb -2.16492 66.2112
rfemur -28.6766 26.2021 10.5762
rtibia 11.0055
rfoot -1.54 -0.153715
rtoes -25.0212
lfemur 17.168 -47.1864 -40.6232
ltibia -7.42382
lfoot -47.1162 33.6301
ltoes -49.9354
402
root -15.1761 15.7881 4.19905 189.987 -6.52513 -178.965
lowerback 8.3911 0.547287 -2.11102
upperback -8.36821 0.194223 1.72156
thorax -13.9573 0.234265 3.10015
lowerneck -15.1104 -0.220122 -5.12171
upperneck 45.2776 -11.0393 7.49388
head 22.2585 -6.63999 1.4914
rclavicle 1.2424e-015 -1.98785e-015
rhumerus -48.094 15.1711 -79.5239
rradius 23.1416
rwrist -10.4861
rhand -14.6769 -26.2454
rfingers 7.12502
rthumb 11.4764 -55.9113
lclavicle 1.2424e-015 -1.98785e-015
lhumerus -34.5931 -4.78035 84.4238
lradius 32.6583
lwrist -4.07898
lhand -27.9932 36.5609
lfingers 7.12502
lthumb -1.37934 66.5361
rfemur -30.0597 26.4222 9.25218
rtibia 11.1706
rfoot -1.68051 -1.59033
rtoes -24.0772
lfemur 16.1986 -46.3328 -40.5119
ltibia -8.2886
lfoot -46.5844 33.3221
ltoes -47.9135
403
root -15.2603 15.7758 4.33552 190.531 -5.88026 -179.143
lowerback 8.52778 0.536327 -2.13967
upperback -8.36612 0.166799 1.6517
thorax -14.0388 0.221982 3.0457
lowerneck -15.3328 -0.0692257 -5.08904
upperneck 45.7359 -10.8943 7.0704
head 22.6526 -6.66654 1.26875
rclavicle -1.1045e-014 -1.72943e-014
rhumerus -48.1676 16.1592 -80.7253
rradius 23.5639
rwrist -10.9087
rhand -13.7291 -25.4641
rfingers 7.12502
rthumb 12.3903 -55.0769
lclavicle -1.1045e-014 -1.72943e-014
lhumerus -34.1738 -4.93237 84.6444
lradius 33.4198
lwrist -3.57665
lhand -28.0326 36.9174
lfingers 7.12502
lthumb -1.41744 66.8925
rfemur -31.2622 26.1464 8.35358
rtibia 10.8656
rfoot -1.59943 -2.98128
rtoes -25.0221
lfemur 14.9972 -45.6444 -40.0233
ltibia -8.99543
lfoot -45.7844 33.366
ltoes -46.9833
404
root -15.3397 15.7613 4.46695 191.049 -5.35941 -179.194
lowerback 8.69547 0.496379 -1.92657
upperback -8.38788 0.129615 1.54698
thorax -14.1635 0.178232 2.8191
lowerneck -15.2397 0.262973 -4.77494
upperneck 46.2247 -10.401 6.36878
head 22.8343 -6.55783 0.932298
rclavicle -1.08338e-014 -2.5842e-014
rhumerus -48.0707 16.7343 -81.5839
rradius 23.8319
rwrist -10.9572
rhand -12.8595 -24.5417
rfingers 7.12502
rthumb 13.2286 -54.1019
lclavicle -1.08338e-014 -2.5842e-014
lhumerus -33.7417 -5.03574 84.8144
lradius 33.9311
lwrist -3.03192
lhand -28.8575 36.9099
lfingers 7.12502
lthumb -2.21407 66.8781
rfemur -32.1888 26.1892 7.56358
rtibia 10.2056
rfoot -1.50577 -4.79199
rtoes -24.6284
lfemur 13.8275 -45.0465 -39.4326
ltibia -9.63902
lfoot -45.3436 32.978
ltoes -46.4443
405
root -15.4111 15.7544 4.58572 191.567 -4.82181 -179.537
lowerback 8.73828 0.445058 -2.05711
upperback -8.36639 0.0202773 1.34569
thorax -14.1574 0.128553 2.69079
lowerneck -15.1212 0.697566 -5.00096
upperneck 46.5286 -10.0881 6.73692
head 23.1052 -6.51272 1.23574
rclavicle 1.23371e-014 1.63003e-014
rhumerus -47.7664 17.059 -82.2661
rradius 24.0184
rwrist -10.9524
rhand -12.6327 -23.9558
rfingers 7.12502
rthumb 13.4473 -53.5018
lclavicle 1.23371e-014 1.63003e-014
lhumerus -33.3033 -5.44868 85.0481
lradius 34.272
lwrist -2.20499
lhand -29.1861 36.9649
lfingers 7.12502
lthumb -2.53148 66.9297
rfemur -32.9659 26.7029 6.32313
rtibia 9.40047
rfoot -1.75943 -7.2648
rtoes -23.0647
lfemur 12.4497 -44.4819 -39.1269
ltibia -9.95071
lfoot -44.4525 33.3219
ltoes -47.4163
406
root -15.4788 15.753 4.69307 192.019 -4.24793 -179.674
lowerback 8.68977 0.440333 -2.20932
upperback -8.32522 -0.00721923 1.33429
thorax -14.0777 0.129421 2.76795
lowerneck -15.0629 1.04046 -5.07799
upperneck 46.9094 -9.73482 6.62841
head 23.3768 -6.4701 1.25941
rclavicle 1.15544e-015 4.37326e-015
rhumerus -47.6321 17.9723 -83.1702
rradius 24.5342
rwrist -12.1098
rhand -13.3018 -24.3633
rfingers 7.12502
rthumb 12.8023 -53.9507
lclavicle 1.15544e-015 4.37326e-015
lhumerus -32.9398 -5.93736 85.564
lradius 34.4314
lwrist -1.65196
lhand -28.8591 37.1937
lfingers 7.12502
lthumb -2.21564 67.1619
rfemur -33.6221 27.7811 5.22532
rtibia 8.50397
rfoot -2.43921 -10.4555
rtoes -21.2255
lfemur 11.1773 -43.8165 -38.6018
ltibia -10.3035
lfoot -43.4441 33.7061
ltoes -48.3341
407
root -15.5447 15.7524 4.79296 192.372 -3.71988 -179.601
lowerback 8.65906 0.441131 -2.26108
upperback -8.26323 0.00519946 1.45937
thorax -13.9871 0.147722 2.93177
lowerneck -15.1204 1.32249 -4.86438
upperneck 47.4142 -9.32434 5.96407
head 23.7038 -6.40505 0.922482
rclavicle -6.58474e-016 1.66979e-014
rhumerus -47.3452 18.7745 -83.7575
rradius 24.9453
rwrist -13.103
rhand -14.1668 -24.8147
rfingers 7.12502
rthumb 11.9682 -54.4525
lclavicle -6.58474e-016 1.66979e-014
lhumerus -32.4976 -6.14424 86.1933
lradius 34.2088
lwrist -1.60707
lhand -28.4955 37.0491
lfingers 7.12502
lthumb -1.8645 67.0207
rfemur -33.9199 28.7365 4.64673
rtibia 7.36936
rfoot -3.16843 -14.0901
rtoes -19.1944
lfemur 10.1241 -43.1234 -38.0053
ltibia -10.6748
lfoot -42.3236 34.1482
ltoes -49.0513
